<?xml version="1.0" encoding="UTF-8"?>
<svg width="843" height="197.2" inkscape:version="1.0.2 (e86c870879, 2021-01-15)" sodipodi:docname="Angel_Beats_logo.svg" version="1.1" xmlns="http://www.w3.org/2000/svg" xmlns:cc="http://creativecommons.org/ns#" xmlns:dc="http://purl.org/dc/elements/1.1/" xmlns:inkscape="http://www.inkscape.org/namespaces/inkscape" xmlns:rdf="http://www.w3.org/1999/02/22-rdf-syntax-ns#" xmlns:sodipodi="http://sodipodi.sourceforge.net/DTD/sodipodi-0.dtd">
 <sodipodi:namedview bordercolor="#666666" borderopacity="1" gridtolerance="10" guidetolerance="10" inkscape:current-layer="svg919" inkscape:cx="370.86702" inkscape:cy="324.76633" inkscape:pageopacity="0" inkscape:pageshadow="2" inkscape:window-height="1014" inkscape:window-maximized="1" inkscape:window-width="1920" inkscape:window-x="0" inkscape:window-y="36" inkscape:zoom="1.1028755" objecttolerance="10" pagecolor="#ffffff" showgrid="false"/>
 <linearGradient id="a" x1="1231" x2="1938" y1="359.3" y2="359.3" gradientTransform="rotate(-90 1585 359.3)" gradientUnits="userSpaceOnUse">
  <stop stop-color="#900" offset="0"/>
  <stop stop-color="#e10318" offset="1"/>
 </linearGradient>
 <metadata>
  <rdf:RDF>
   <cc:Work rdf:about="">
    <dc:format>image/svg+xml</dc:format>
    <dc:type rdf:resource="http://purl.org/dc/dcmitype/StillImage"/>
    <dc:title/>
   </cc:Work>
  </rdf:RDF>
 </metadata>
 <g transform="matrix(.2624 0 0 .2624 -.0008439 -1.455)">
  <path d="m1594 49.55c-11.21 0.011-22.39 0.2721-33.44 1.219-10.69 4.819-17.97 16.06-18.03 27.84-2.31 46.35 0.2681 92.85-1.938 139.2-1.885 4.59-6.722-0.9253-8.781-2.5-25.84-25.36-56.03-47.5-91.28-57.88-39.27-12.25-82.56-9.686-120.5 5.719-28.64 11.16-54.75 28.52-77.06 49.47-4.895 2.274-5.607-4.944-5.344-8.156-0.3729-12.46 1.79-27.65-8.938-36.53-8.203-10.1-22.29-7.507-33.75-8.219-18.97 0.3965-38.13-1.095-57 0.9062-5.799 1.482-9.888 6.793-9.688 12.72-1.882 5.208-8.304 1.63-11.34-0.375-42.82-26.9-97.74-28.69-145.1-13.66-40.86 13.29-77.52 39.57-101.3 75.47-2.483 2.293-4.676 8.748-8.906 6.844-5.547-6.675-8.645-15.29-14.06-22.22-17.43-24.61-41.21-45.53-69.22-56.91-39.11-16.72-85.92-20.54-125.5-2.938-7.033 2.659-12.6 7.962-19.47 10.66-10.64-3.953-20.82-10.27-32.5-10.56-11.61-0.8613-23.21 0.8101-34.81 1.094-0.7853-26.39 0.1431-52.89-1.969-79.22-2.279-9.32-7.839-17.9-15.38-23.88-3.459-2.743-7.33-4.952-11.5-6.406-5.998-2.514-13.37-0.7782-19.84-1.5-20.88 0.1058-42.03-0.6358-62.75 0.3438-8.355 2.838-14.46 9.098-19.16 16.34-73.08 96.54-144 194.6-215.5 292.3-55.09 76.21-111.1 151.9-164.2 229.4-4.934 6.548-8.097 14.24-11.31 21.5 0.01 5.91-1.895 13 2.219 17.88 3.338 8.391 12.69 13.17 20.88 15.06 282.7 0.3801 565.4 0.7479 848.1 1.094 26.31 16.94 55.83 29.01 87.06 32.47 47.33 6.332 98.37 1.258 139-25.31 5.567-3.676 11.21-8.032 18.34-6.844 97.96-1.394 195.9-0.5941 293.9-0.9062h530.4c9.192 8.922 9.874 22.78 14.28 34.25 6.9 21.05 12.34 42.84 22.44 62.59 6.523 13.61 23.23 20.75 37.38 15.03 10.97-3.009 18.57-11.95 24-21.5 17.38-27.48 32.35-56.67 51.5-82.94 3.407-6.393 11.84-2.28 17.75-3.438 324.2-0.1625 648.3 0.3614 972.5-0.375 20.07-0.4175 40.27 0.4777 60.25-1.25 9.406-2.925 15.57-12.6 14.41-22.34 1.264-31.54-0.1129-63.21 2.031-94.69 1.882-6.176 6.687-11.11 8.219-17.59 6.302-15.69 5.087-33.64-3-48.41-2.756-5.169-7.829-9.362-6.062-15.84-0.3275-124.5-0.6402-249.1-0.9688-373.6-2.855-10.14-10.64-18.6-20.84-21.41-6.842-3.216-15.24-0.9735-22.66-1.875-20.61 0.14-41.51-0.6827-61.94 0.3438-10.94 3.951-19.19 13.97-19.88 25.66-1.812 41.02-0.098 82.2-2.156 123.2-2.654 4.209-7.065-2.15-9.562-3.75-24.13-24.83-56.53-44.97-92.06-44.72-31.09-2.168-61.27 9.828-86.53 26.84-2.524 2.101-6.31 1.746-6.531-2.031-1.17-5.455-1.188-14.52-8.594-14.84-12.02-1.411-24.15-1.254-36.22-1.844-0.7874-28.21 0.06-56.62-1.937-84.72-2.06-10.17-9.257-19.39-19.41-22.31-5.681-2.79-13.16-0.8498-19.47-1.688-19.86 0.038-39.98-0.7083-59.69 0.2188-10.47 4.234-21.03 10.45-24.47 21.94-3.603 12.52-1.527 26.08-2.438 39-0.2335 15.86-0.4278 31.73-0.6562 47.59-21.43 0.9182-43.16-0.3486-64.41 2.25-7.07 1.51-10.94 8.21-14.69 13.66-4.507 1.846-8.832-3.114-13.03-4.344-46.76-25.42-104.6-22.8-152.8-3.312-39.42 15.8-73.73 43.76-94.66 80.84-2.438 2.651-4.149 9.48-8.594 8-9.225-10.34-15.47-23.29-25-33.59-27.32-32.95-63.96-58.66-106.4-67.53-56.98-13.19-118.3 4.304-163.6 40.09-16.97 11.23-28.95 28.4-44.97 40.62-5.127 1.251-3.61-6.313-3.469-9.281 3.002-30.42-0.3223-62-13.94-89.56-20.62-43.97-63.79-75.99-111.5-84.28-11.06-3.618-23.17-1.379-34.69-2.312-26.66-0.2654-53.31-0.3504-79.97-0.2187-16.59 0.4029-33.54-0.4876-49.91 1.219-7.163 3.213-14.09 8.185-17.19 15.59-3.527 4.807-0.5145 14-7.5 16.06-9.549 0.9776-19.65 1.205-29.09-0.25-5.898-1.484-3.193-8.739-5.344-12.78-1.867-8.141-8.208-13.99-15.72-16.97-5.432-4.513-13.37-1.718-19.91-2.75-11.15 0-22.39-0.2301-33.59-0.2188z"/>
  <path d="m1550 5.545c-11.21 0.011-22.39 0.2721-33.44 1.219-10.69 4.819-17.97 16.06-18.03 27.84-2.31 46.35 0.2681 92.85-1.938 139.2-1.885 4.59-6.722-0.9253-8.781-2.5-25.84-25.36-56.03-47.5-91.28-57.88-39.27-12.25-82.56-9.686-120.5 5.719-28.64 11.16-54.75 28.52-77.06 49.47-4.895 2.274-5.607-4.944-5.344-8.156-0.3729-12.46 1.79-27.65-8.938-36.53-8.203-10.1-22.29-7.507-33.75-8.219-18.97 0.3965-38.13-1.095-57 0.9062-5.799 1.482-9.888 6.793-9.688 12.72-1.882 5.208-8.304 1.63-11.34-0.375-42.82-26.9-97.74-28.69-145.1-13.66-40.86 13.29-77.52 39.57-101.3 75.47-2.483 2.293-4.676 8.748-8.906 6.844-5.547-6.675-8.645-15.29-14.06-22.22-17.43-24.61-41.21-45.53-69.22-56.91-39.11-16.72-85.92-20.54-125.5-2.938-7.033 2.659-12.6 7.962-19.47 10.66-10.64-3.953-20.82-10.27-32.5-10.56-11.61-0.8613-23.21 0.8101-34.81 1.094-0.7853-26.39 0.1431-52.89-1.969-79.22-2.279-9.32-7.839-17.9-15.38-23.88-3.459-2.743-7.33-4.952-11.5-6.406-5.998-2.514-13.37-0.7782-19.84-1.5-20.88 0.1058-42.03-0.6358-62.75 0.3438-8.355 2.838-14.46 9.098-19.16 16.34-73.08 96.54-144 194.6-215.5 292.3-55.09 76.21-111.1 151.9-164.2 229.4-4.934 6.548-8.097 14.24-11.31 21.5 0.01 5.91-1.895 13 2.219 17.88 3.338 8.391 12.69 13.17 20.88 15.06 282.7 0.3801 565.4 0.7479 848.1 1.094 26.31 16.94 55.83 29.01 87.06 32.47 47.33 6.332 98.37 1.258 139-25.31 5.567-3.676 11.21-8.032 18.34-6.844 97.96-1.394 195.9-0.5941 293.9-0.9062h530.4c9.192 8.922 9.874 22.78 14.28 34.25 6.9 21.05 12.34 42.84 22.44 62.59 6.523 13.61 23.23 20.75 37.38 15.03 10.97-3.009 18.57-11.95 24-21.5 17.38-27.48 32.35-56.67 51.5-82.94 3.407-6.393 11.84-2.28 17.75-3.438 324.2-0.1625 648.3 0.3614 972.5-0.375 20.07-0.4175 40.27 0.4777 60.25-1.25 9.406-2.925 15.57-12.6 14.41-22.34 1.264-31.54-0.1129-63.21 2.031-94.69 1.882-6.176 6.687-11.11 8.219-17.59 6.302-15.69 5.087-33.64-3-48.41-2.756-5.169-7.829-9.362-6.062-15.84-0.3275-124.5-0.6402-249.1-0.9688-373.6-2.855-10.14-10.64-18.6-20.84-21.41-6.842-3.216-15.24-0.9735-22.66-1.875-20.61 0.14-41.51-0.6827-61.94 0.3438-10.94 3.951-19.19 13.97-19.88 25.66-1.812 41.02-0.098 82.2-2.156 123.2-2.654 4.209-7.065-2.15-9.562-3.75-24.13-24.83-56.53-44.97-92.06-44.72-31.09-2.168-61.27 9.828-86.53 26.84-2.524 2.101-6.31 1.746-6.531-2.031-1.17-5.455-1.188-14.52-8.594-14.84-12.02-1.411-24.15-1.254-36.22-1.844-0.7874-28.21 0.06-56.62-1.937-84.72-2.06-10.17-9.257-19.39-19.41-22.31-5.681-2.79-13.16-0.8498-19.47-1.688-19.86 0.038-39.98-0.7083-59.69 0.2188-10.47 4.234-21.03 10.45-24.47 21.94-3.603 12.52-1.527 26.08-2.438 39-0.2335 15.86-0.4278 31.73-0.6562 47.59-21.43 0.9182-43.16-0.3486-64.41 2.25-7.07 1.51-10.94 8.21-14.69 13.66-4.507 1.846-8.832-3.114-13.03-4.344-46.76-25.42-104.6-22.8-152.8-3.312-39.42 15.8-73.73 43.76-94.66 80.84-2.438 2.651-4.149 9.48-8.594 8-9.225-10.34-15.47-23.29-25-33.59-27.32-32.95-63.96-58.66-106.4-67.53-56.98-13.19-118.3 4.304-163.6 40.09-16.97 11.23-28.95 28.4-44.97 40.62-5.127 1.251-3.61-6.313-3.469-9.281 3.002-30.42-0.3223-62-13.94-89.56-20.62-43.97-63.79-75.99-111.5-84.28-11.06-3.618-23.17-1.379-34.69-2.312-26.66-0.2654-53.31-0.3504-79.97-0.2187-16.59 0.4029-33.54-0.4876-49.91 1.219-7.163 3.213-14.09 8.185-17.19 15.59-3.527 4.807-0.5145 14-7.5 16.06-9.549 0.9776-19.65 1.205-29.09-0.25-5.898-1.484-3.193-8.739-5.344-12.78-1.867-8.141-8.208-13.99-15.72-16.97-5.432-4.513-13.37-1.718-19.91-2.75-11.15 0-22.39-0.2301-33.59-0.2188z" fill="url(#a)" style="fill:url(#a)"/>
  <g fill="#fff">
   <path transform="translate(-343 187.9)" d="m2342 485.2c-1.698-2.046-34.56-97.98-38.62-112.7-5.764-20.96-6.082-21.36-9.49-12.01-1.2 3.292-3.646 7.905-5.435 10.25l-3.252 4.264-397.4 0.2512c-218.6 0.1382-397.8-0.114-398.2-0.5605s2.061-4.61 5.572-9.251c7.433-9.828 16.01-23.73 21.78-35.29 2.238-4.484 4.999-9.164 6.136-10.4l2.068-2.25h724.5l5.117-8.25c4.865-7.843 21.28-40.42 38.85-77.07 7.102-14.82 8.322-16.79 10.25-16.5 1.203 0.1785 3.043 1.474 4.087 2.879 1.045 1.405 5.681 14.45 10.3 29 11.14 35.05 33.63 98.45 35.84 101 0.9662 1.128 2.298 1.885 2.959 1.681 0.6612-0.2041 4.127-6.284 7.702-13.51s5.908-18.21 8.123-17.48l40.46 54.23c-8.544 11.09-23.88 31.59-34.08 51-18.24 34.73-28.73 54.33-31.18 58.25-2.431 3.89-4.322 4.656-6.125 2.484zm-1033-77.88c-19.83-2.541-43.08-9.553-60.59-18.27-32.56-16.22-56.11-39.46-71.04-70.12-3.223-6.62-5.984-13.14-6.136-14.5l-0.2761-2.464 32.38-0.264c22.98-0.1873 32.78 0.0646 33.74 0.8672 0.7496 0.6222 2.777 3.602 4.504 6.622 12.16 21.25 39.1 36.39 72.54 40.78 26.42 3.463 47.45 0.8097 68.22-8.606 20.53-9.305 40.61-29.05 51.49-50.62 6.117-12.14 10.62-28.26 10.62-38.02v-6.426l-6.289 5.005c-23.5 18.7-54.53 31.4-86.11 35.25-13.65 1.663-39.13 0.6339-52.07-2.103-23.7-5.011-47.67-15.36-66.53-28.74-12.18-8.637-31.6-28.06-40.24-40.24-13.37-18.86-23.73-42.83-28.74-66.53-2.737-12.94-3.766-38.42-2.103-52.07 3.205-26.31 12.9-53.23 26.8-74.4 44.77-68.22 131.2-95.8 206.6-65.95 15.43 6.107 28.41 13.56 42.98 24.68l5.75 4.386v-13.94c0-10.58 0.3297-14.21 1.371-15.07 0.9726-0.8072 9.908-1.061 30.75-0.8724l29.38 0.2653 0.2911 145c0.3071 152.9 0.1899 157.8-4.293 180.1-7.199 35.69-25.68 68.27-50.42 88.87-24.37 20.29-52.04 32.07-87.08 37.05-11.62 1.651-43.84 1.873-55.46 0.3832zm52.74-181.2c20.1-5.31 37.65-15.72 52.62-31.18 21.39-22.11 32.09-48.48 32.1-79.12 0.012-31.5-12.2-59.92-35.22-81.99-21.7-20.79-48.31-31.39-78.82-31.39-43.96 0-83.52 25.26-102.6 65.49-2.464 5.201-5.671 13.86-7.128 19.23-2.429 8.966-2.648 11.35-2.648 28.78s0.2198 19.81 2.648 28.78c11.41 42.12 44.49 73.5 87.25 82.75 13.42 2.902 38.15 2.263 51.78-1.339zm-876.8 148.3c-0.647-1.047 34.32-52.27 37.73-55.26 1.887-1.659 18.14-1.75 311.2-1.75 293.3 0 309.3 0.0903 310.7 1.75 0.8126 0.9625 3.873 6.025 6.801 11.25 5.299 9.456 15.91 25.78 23.2 35.71 2.105 2.864 3.828 6.127 3.828 7.25v2.043h-346.4c-227.7 0-346.7-0.3396-347.1-0.9906zm-108.5-1.53c0-1.972 6.148-11.79 14.07-22.48 5.098-6.875 53.37-72.35 107.3-145.5 166.6-226.1 239.1-323.9 256.5-346 9.917-12.58 7.81-11.95 40.74-12.32 32.59-0.3691 34.49-0.03 36.37 6.491 0.7946 2.754 1.023 63.31 0.8134 215.8l-0.2911 212-65.49 0.5273-0.5146-129.5-158.4-0.512-35.51 49.26c-19.53 27.09-55.45 76.93-79.83 110.8l-44.31 61.5-35.74 0.2626c-19.66 0.1444-35.74 0.017-35.74-0.2832zm389.8-355.9c0.1817-53.84-0.0611-76.25-0.8343-77-0.7745-0.7501-2.085 0.0843-4.522 2.878-7.339 8.415-110.4 148.4-110.4 149.9 0 0.3586 25.99 0.5359 57.75 0.3939l57.75-0.2581zm2479 272.9c-11.69-2.068-15.13-2.874-21.84-5.115-35.36-11.82-62.09-40.08-71.83-75.93-2.278-8.391-2.692-11.97-2.758-23.87l-0.079-14 28.54-0.265c22.38-0.2078 28.93 0.0197 30.34 1.054 1.417 1.036 1.974 3.449 2.602 11.26 1.213 15.11 5.645 25.02 15.25 34.11 15.34 14.51 39.35 17.63 58.19 7.559 6.553-3.503 15.33-12.31 18.87-18.94 2.912-5.445 5.653-16.22 5.683-22.35 0.028-5.739-2.728-13.39-6.747-18.74-9.06-12.05-23.34-19.99-46.22-25.72-53.71-13.43-84.26-37.77-94.11-74.98-2.52-9.514-3.063-30.41-1.04-40 6.564-31.11 24.4-54.22 52.78-68.38 39.61-19.76 89.89-12.02 121 18.65 16.1 15.85 27 39.24 27.59 59.23l0.2236 7.5h-60.91l-1.256-6.206c-2.552-12.61-10.48-23.04-21.89-28.79-5.622-2.836-6.6-3-17.95-3-10.93 0-12.51 0.2399-17.72 2.68-15.65 7.333-24.22 23.78-20.85 40.01 2.191 10.55 11.43 19.81 24.8 24.82 3.17 1.19 12.51 3.89 20.76 6 35.56 9.096 59.45 21.1 77.07 38.73 24.47 24.47 32.7 58.45 23.3 96.26-9.514 38.27-37.56 65.7-77.37 75.65-8.054 2.014-13.11 2.57-26 2.856-8.8 0.1959-17.12 0.1572-18.5-0.086zm176.3-1.813c-10.41-3.394-20.36-12.26-25.11-22.39-2.375-5.066-2.68-6.917-2.68-16.24 0-9.861 0.2051-10.94 3.268-17.16 4.161-8.453 12.86-16.74 20.95-19.95 8.306-3.296 22.34-3.263 30.78 0.0738 8.316 3.284 18.27 13.24 21.55 21.55 3.336 8.449 3.37 22.48 0.074 30.78-3.195 8.05-11.5 16.79-19.87 20.91-5.702 2.807-7.744 3.264-15.66 3.507-5.742 0.1761-10.66-0.2278-13.32-1.094zm-955.3-0.237c-41.47-5.193-76.73-22.67-105-52.03-13.04-13.55-22.17-26.3-29.96-41.84-13.97-27.88-20.04-57.91-17.93-88.85 4.104-60.42 40.22-114.2 95.21-141.8 38.9-19.52 85.95-23.15 126.2-9.73 33.73 11.26 64.31 35.39 84.77 66.89 11.34 17.46 21.32 40.58 24.17 56 2.992 16.17 4.758 61.94 2.549 66.07-1.016 1.898-3.594 1.934-136.6 1.934h-135.5l0.6898 3.25c1.362 6.418 6.574 18.56 11.55 26.9 15.87 26.62 40.33 44.95 70.66 52.95 11.98 3.16 35.79 3.71 48.26 1.114 25.92-5.397 47.75-20.06 60.87-40.89 2.713-4.307 6.074-9.069 7.469-10.58l2.536-2.75h31.1c26.9 0 31.17 0.2051 31.68 1.52 0.9398 2.449-9.482 24.89-17.21 37.06-16.47 25.94-41.47 48.18-67.98 60.48-21.34 9.907-40.15 14.03-65.95 14.45-9.9 0.1623-19.58 0.0979-21.5-0.1431zm118.5-194.6c-5.152-31.03-21.34-57.68-44.71-73.6-7.172-4.887-20.31-10.87-29.26-13.32-6.888-1.887-10.57-2.192-26.5-2.195-16.85-3e-3 -19.37 0.2312-28.28 2.63-11.4 3.072-25.71 9.607-35.96 16.42-15.93 10.59-32.01 30.08-39.87 48.32-3.061 7.101-7.891 22.65-7.891 25.41 0 0.3209 47.96 0.5834 106.6 0.5834h106.6zm234.9 194.2c-72.48-6.955-132.8-58.42-150.4-128.5-3.944-15.62-5.18-25.76-5.18-42.51s1.236-26.9 5.18-42.51c7.219-28.59 20.96-53.51 41.42-75.16 25.61-27.09 58.58-44.91 95.19-51.42 16.62-2.96 42.16-2.975 58.66-0.0344 27.6 4.918 57.1 17.98 76.52 33.89l4.25 3.481v-13.93c0-9.566 0.3915-14.46 1.25-15.64 1.138-1.554 3.904-1.683 30.75-1.441l29.5 0.2662v327l-29.5 0.2662c-26.85 0.2423-29.61 0.1126-30.75-1.441-0.8679-1.186-1.25-6.27-1.25-16.64v-14.93l-4.25 3.481c-19.32 15.82-49.53 29.21-76.07 33.71-13.69 2.321-33.1 3.187-45.28 2.019zm29.1-58.08c12.9-1.581 24.39-5.11 37-11.36 13.14-6.517 21.5-12.66 31.65-23.29 15.19-15.9 24.53-33.45 29.53-55.52 1.137-5.013 1.639-11.97 1.639-22.73 0-20.6-2.83-33.18-11.28-50.13-7.67-15.39-20.24-30.55-33.98-40.97-8.603-6.525-26.34-15.25-37.31-18.36-63.54-17.98-129.6 22.9-142.4 88.15-2.264 11.52-2.253 30.87 0.024 42.62 11.31 58.4 66.47 98.77 125.1 91.58zm-1183 56.63c-19.05-2.919-33.49-7.54-51.88-16.6-18.14-8.934-30.16-17.6-44.99-32.43-14.44-14.44-23.27-26.61-31.95-43.99-7.893-15.83-11.77-26.84-15.28-43.4-2.386-11.25-2.677-14.79-2.716-33.1-0.037-17.5 0.2906-22.16 2.243-31.83 10.4-51.53 41.21-93.85 86.69-119.1 40.4-22.41 89.73-27.13 132.8-12.72 41.31 13.82 75.79 45.3 96.18 87.8 7.062 14.72 12.09 30.08 13.53 41.34 1.35 10.57 2.576 55.08 1.622 58.88l-0.6569 2.617h-136c-74.79 0-136 0.1738-136 0.3862s1.183 3.925 2.629 8.25c12.06 36.07 41.95 64.08 79.09 74.11 8.853 2.391 11.53 2.646 28.28 2.699 16.32 0.0522 19.49-0.2121 26.93-2.245 25.08-6.852 46.1-22.96 59.06-45.26 1.737-2.987 3.884-5.993 4.772-6.681 1.883-1.458 61.8-1.814 64.06-0.38 1.057 0.6704 0.782 2.127-1.367 7.235-23.5 55.85-64.67 91.17-120 102.9-13.09 2.779-43.59 3.587-57.12 1.514zm124.2-194.5c-1.812-13.66-9.929-34.15-18.7-47.21-10.21-15.2-28.54-29.57-45.6-35.74-26.75-9.679-60.53-7.464-86.79 5.693-19.33 9.685-38.36 28.13-48.92 47.4-4.132 7.544-9.036 20.44-11.04 29.04l-1.36 5.832h213.1zm-938.4 188.8c-0.9234-0.9234-1.2-38.47-1.2-162.9 0-145.7 0.1558-161.9 1.571-163.3 1.354-1.354 5.471-1.571 29.8-1.571 20.62 0 28.55 0.3234 29.43 1.2 0.7977 0.7977 1.2 5.156 1.2 13 0 6.49 0.2225 11.8 0.4944 11.8 0.2719 0 4.154-2.714 8.628-6.03 17.89-13.27 34.87-21.02 56.11-25.62 11.44-2.481 40.4-2.473 53.7 0.0146 28.99 5.422 51.64 16.96 70.69 36.01 24.43 24.43 36.3 53.87 38.16 94.63 0.3897 8.525 0.4836 57.8 0.2086 109.5l-0.5 94-29.38 0.2653c-20.84 0.1882-29.78-0.0653-30.75-0.8724-1.145-0.9501-1.371-17.96-1.371-103.1 0-98.5-0.069-102.3-2.028-111.9-5.392-26.46-18.37-45.57-37.22-54.81-12.98-6.363-18.83-7.559-36.75-7.519-17.83 0.0391-24.51 1.373-37.84 7.555-25.03 11.61-40.79 31.52-49.37 62.41-2.217 7.98-2.223 8.251-2.556 107.5-0.2549 75.99-0.617 99.65-1.534 100.2-2.11 1.341-58.14 0.9587-59.5-0.4063zm1020 0.5451c-0.9946-0.4072-1.25-44.73-1.25-216.9 0-212.9 0.031-216.4 1.934-217.4 1.206-0.6452 12.84-1.035 30.88-1.035 23.13 0 29.17 0.272 30.07 1.355 0.8271 0.9965 1.058 58.63 0.8725 217.8l-0.2523 216.4-30.5 0.1785c-16.78 0.0982-31.06-0.0518-31.75-0.3333zm158-0.4962c-0.9909-0.9909-1.249-45.83-1.249-217v-215.8l2.071-1.108c1.479-0.7916 21.55-0.9907 70.25-0.6969 64.43 0.3887 68.67 0.5245 77.18 2.471 48.57 11.12 83.76 47.01 93.14 94.99 2.28 11.66 2.239 32.91-0.083 43.77-4.5 21.05-13.06 38.88-25.82 53.8-2.73 3.191-4.8 5.928-4.6 6.081 0.2004 0.1531 3.955 2.717 8.343 5.698 9.983 6.781 23.53 20.1 30.43 29.92 26.4 37.55 29.88 86.69 9.061 128-17.38 34.48-47.64 58.07-86.97 67.79l-10.5 2.595-80 0.3548c-63.02 0.2795-80.27 0.0896-81.25-0.8942zm155.4-61.33c23.08-4.352 43.48-22.49 50.62-45.02 1.864-5.884 2.211-9.232 2.175-21-0.04-12.9-0.2672-14.59-2.883-21.5-7.261-19.17-21.56-33.46-40.57-40.54-7.314-2.724-8.193-2.811-35.5-3.531-15.4-0.4058-36.21-0.7809-46.25-0.8335l-18.25-0.09565v134h41.41c32.33 0 43.13-0.324 49.25-1.478zm-16.12-195c25.76-6.548 44.33-29.03 46.11-55.83 0.6959-10.44-1.402-20.66-6.296-30.66-5.19-10.61-16.98-22.33-27.53-27.39-12.22-5.854-18.5-6.61-54.91-6.61h-31.91v122h34.29c27.34 0 35.5-0.307 40.25-1.515zm865.6 256.2c-0.8271-0.9965-1.058-58.63-0.8725-217.8l0.2523-216.4 30.88-0.2646c21.95-0.1881 31.28 0.0641 32.25 0.8724 1.128 0.9366 1.37 10.46 1.37 54.01v52.88h25.3c18.34 0 25.63 0.3299 26.5 1.2 0.8732 0.8732 1.2 8.444 1.2 27.8s-0.3268 26.93-1.2 27.8c-0.8701 0.8701-8.156 1.2-26.5 1.2h-25.3v133.8c0 102.7-0.2786 134.1-1.2 135-1.849 1.849-61.14 1.702-62.68-0.1552zm367.3-88.67c-0.2643-3.725-0.3652-79.65-0.224-174l0.2567-171.5h64v345l-31.78 0.2641s-2.187-0.0101-32.26 0.212z"/>
   <path d="m2607 499v36.42c0 40.75-1.161 37.7 13.21 34.62 14.73-3.16 24.74-15.62 24.82-30.89 0.035-6.943-0.024-7.023-5.741-7.023-5.236 0-5.789 0.4317-5.789 4.603 0 6.533-6.754 18.89-11.17 20.45l-3.725 1.329v-59.5h-5.813zm-389 1.661v6.548l0.404 7.356 12.43-0.3097 12.84 0.4745v43.04l-14.5 0.4745-14.47 0.4982v13.1h72.84v-13.24h-28.14v-44.7h24.82v-13.24h-33.1zm147.3 0v11.65c0 13.12-3.408 21.79-12.19 31.13-8.611 9.147-16.61 12.37-32.91 13.19l-14.5 0.7118v14.5h10.53c29.57 0 50.15-10.98 59.93-31.98 3.3-7.088 3.996-11.19 4.01-23.87l0.024-15.33h-14.9zm216.8 0v25.53c0 14.04-0.4884 26.75-1.068 28.26-0.5795 1.51-2.807 3.429-4.958 4.247-3.092 1.175-3.915 2.697-3.915 7.307 0 3.391 0.8297 5.836 1.969 5.836 4.532 0 15.89-6.99 17.65-10.87 1.203-2.64 1.898-14.57 1.898-32.24v-28.07h-5.789zm101 0v26.64c0 31.51 1.478 36.49 12.29 41.4 5.667 2.574 11.05 3.077 33.64 3.108l26.9 0.0237v-14.9h-26.5c-24.48 0-26.74-0.238-29.87-3.369-2.819-2.819-3.303-5.12-2.895-13.67l0.4982-10.27 58.77-0.9016v-14.83h-59.6v-6.619c0-6.621 0-6.619-6.619-6.619zm233.9 0-0.8777 14.02c-0.6946 11.13-1.78 15.56-5.243 21.47-8.433 14.39-21.54 20.78-42.56 20.78h-13.03v15.33l17.79-0.8541c23.28-1.124 31.57-4.15 43.63-15.97 11.41-11.17 14.71-20.38 14.71-41v-13.78h-7.212zm-611.3 1.661v14.9h36.42v-14.9h-18.2zm549.6 0v33.1h13.24v-33.1h-6.619zm24.82 0v33.1h14.9v-33.1h-7.45zm-481.7 1.661v11.44l12.84 0.5694c7.056 0.3103 15.61 0.7183 19.03 0.9016 6.194 0.3324 6.216 0.3197 6.216-6.287v-6.619h-19.03zm69.13 13.24c-7.465 0-7.489 0.0213-9.324 7.307-2.274 9.03-10.45 19.96-19.86 26.57-6.567 4.619-8.395 5.051-23.54 5.575l-16.42 0.5694v14.97l17.79-0.6643c14.84-0.5424 19.36-1.366 27.17-4.982 16.75-7.757 28.6-23.56 30.65-40.88l0.9965-8.47zm25.22 0v13.24h21.66l-0.4982 14.5-0.4746 14.47-20.69 0.9964v11.41h56.28v-11.58h-19.86v-29.8h19.86v-13.24h-28.14zm-94.35 6.619v13.24h38.08v-13.24h-19.03zm374.1 3.322v16.54h62.92v-16.54h-31.46z"/>
   <path d="m2946 505.2h179.2v55.53h-179.2z"/>
   <path d="m2030 507.2h151.3v54.52h-151.3z"/>
   <path d="m2469 502.5h7.68v8.89h-7.68z"/>
   <path d="m2459 502.5h7.68v8.89h-7.68z"/>
   <path d="m2752 498.4h7.68v8.89h-7.68z"/>
   <path d="m2742 498.4h7.68v8.89h-7.68z"/>
  </g>
 </g>
</svg>
